<svg width="87" height="28" viewBox="0 0 87 28" fill="none" xmlns="http://www.w3.org/2000/svg">
<path fill-rule="evenodd" clip-rule="evenodd" d="M18.2636 8.58448L14.8044 11.2264C14.1696 9.66495 12.6725 8.87107 10.303 8.84801C7.98779 8.82824 6.76908 9.36518 6.65366 10.4654C6.57558 11.2165 7.55326 11.7666 9.5867 12.1191C12.6487 12.6231 14.5158 13.0217 15.1846 13.3049C17.1705 14.0988 18.0667 15.3967 17.8766 17.2019C17.6763 19.096 16.6613 20.5718 14.8282 21.6259C13.1851 22.5746 11.189 23.0457 8.84326 23.0457C4.75261 23.0457 1.80599 22.0344 0 20.0085L3.68667 17.6664C4.61343 19.0532 6.36171 19.7449 8.93152 19.7449C9.95333 19.7449 10.8597 19.5374 11.6541 19.1191C12.367 18.7205 12.7506 18.2824 12.8015 17.7981C12.8796 17.0701 11.9257 16.5299 9.94315 16.1807C6.98295 15.6273 5.14301 15.2122 4.42672 14.9257C2.49173 14.1087 1.61928 12.7911 1.81278 10.9628C2.00289 9.15765 2.9602 7.78071 4.68132 6.8353C6.2429 5.97554 8.26955 5.5473 10.7647 5.5473C14.1322 5.5473 16.6308 6.5586 18.2636 8.58448Z" fill="#3BB8FF"/>
<path fill-rule="evenodd" clip-rule="evenodd" d="M18.0023 5.50446L17.0755 13.8913C17.0585 14.0263 17.0416 14.1614 17.028 14.2965L17.0008 14.5732L15.5173 28H20.3175L20.9727 22.0706C22.283 22.7228 23.865 23.0456 25.7151 23.0456C28.6821 23.0456 31.1297 22.2089 33.0613 20.5388C34.9114 18.9313 35.9705 16.8494 36.2353 14.2965C36.5035 11.7435 35.8789 9.66493 34.3682 8.0574C32.7863 6.38398 30.5152 5.54728 27.5448 5.54728C25.7287 5.54728 23.5764 5.94257 22.6021 7.26351L22.8024 5.50446H18.0023ZM22.154 15.1397L22.3407 13.3807C22.5784 12.3892 23.0333 11.5261 23.7088 10.7981C24.6661 9.76375 25.878 9.24657 27.3446 9.24657C28.8145 9.24657 29.9211 9.76375 30.6714 10.7981C31.3571 11.7435 31.6287 12.9096 31.4895 14.2965C31.3503 15.6833 30.8445 16.8494 29.9687 17.7981C29.0114 18.8325 27.7994 19.3496 26.3295 19.3496C24.863 19.3496 23.7563 18.8325 23.0061 17.7981C22.4629 17.0503 22.1812 16.1609 22.154 15.1397Z" fill="white"/>
<path fill-rule="evenodd" clip-rule="evenodd" d="M44.5931 9.2466C43.0621 9.2466 41.7959 9.76377 40.7978 10.7981C39.8846 11.7435 39.3551 12.9097 39.2091 14.2965C39.0631 15.6833 39.3483 16.8494 40.068 17.7981C40.8487 18.8325 42.0063 19.3497 43.5374 19.3497C45.0718 19.3497 46.338 18.8325 47.3361 17.7981C48.2492 16.8494 48.7788 15.6833 48.9248 14.2965C49.0708 12.9097 48.7822 11.7435 48.0659 10.7981C47.2851 9.76377 46.1275 9.2466 44.5931 9.2466ZM44.9801 5.5473C47.9471 5.5473 50.2216 6.38401 51.8035 8.05742C53.3142 9.66495 53.9388 11.7435 53.6706 14.2965C53.4058 16.8494 52.3467 18.9313 50.4965 20.5388C48.5683 22.2089 46.1174 23.0457 43.1504 23.0457C40.1834 23.0457 37.9123 22.2089 36.3304 20.5388C34.8197 18.9313 34.1951 16.8494 34.4633 14.2965C34.7281 11.7435 35.8076 9.64848 37.6984 8.00801C39.5859 6.36754 42.0165 5.5473 44.9801 5.5473Z" fill="#FF4122"/>
<path fill-rule="evenodd" clip-rule="evenodd" d="M51.1313 22.6503H55.9315L56.8243 14.56C57.011 12.8668 57.3437 11.1736 58.6778 10.3172C59.5401 9.76703 60.4736 9.06539 61.9809 8.85127L62.3 5.93597C60.2937 6.0908 58.1516 6.60797 57.6289 7.28986L57.7782 5.94256H52.9781L51.1313 22.6503Z" fill="#F3D91B"/>
<path fill-rule="evenodd" clip-rule="evenodd" d="M86.9831 7.68185L86.664 10.5049C86.6233 10.8903 86.6572 11.1901 86.7726 11.4042H85.357C85.2823 11.2757 85.2586 11.1143 85.2789 10.9167C84.7052 11.3251 84.0806 11.5294 83.3983 11.5294C82.8551 11.5294 82.424 11.3746 82.0981 11.0682C81.7756 10.7619 81.6398 10.3567 81.6975 9.84938C81.7993 8.94679 82.4274 8.39009 83.5782 8.17926L84.1485 8.07385C84.5321 8.00468 85.0277 7.89926 85.6354 7.75762L85.6524 7.5995C85.7033 7.14821 85.3774 6.92421 84.6747 6.92421C84.2877 6.92421 84.0093 6.9835 83.8464 7.10209C83.6834 7.22068 83.585 7.42821 83.551 7.72468L82.2169 7.67197C82.2848 7.08891 82.5767 6.64091 83.0927 6.33126C83.5476 6.06444 84.1112 5.92938 84.7867 5.92938C85.5098 5.92938 86.0495 6.0315 86.3992 6.23574C86.8677 6.50915 87.0612 6.99338 86.9831 7.68185ZM85.4385 9.49032L85.5268 8.72938C85.3706 8.79856 85.1533 8.86444 84.8682 8.92044L84.1145 9.06868C83.7988 9.13126 83.5748 9.20374 83.4424 9.28938C83.2455 9.40138 83.1335 9.57597 83.1097 9.80656C83.0859 10.0042 83.1504 10.1656 83.3032 10.2875C83.4526 10.4127 83.6529 10.472 83.9007 10.472C84.2605 10.472 84.583 10.3962 84.8716 10.2414C85.2144 10.0569 85.4045 9.80656 85.4385 9.49032Z" fill="white"/>
<path fill-rule="evenodd" clip-rule="evenodd" d="M81.1509 6.05786L80.5501 11.4042H79.2091L79.2703 10.8739C78.8663 11.312 78.3095 11.5294 77.5933 11.5294C77.0196 11.5294 76.5714 11.4042 76.2557 11.1506C75.8518 10.8179 75.6888 10.3007 75.7669 9.59574L76.1675 6.05786H77.505L77.1485 9.2268C77.0705 9.93174 77.359 10.2842 78.0176 10.2842C78.4793 10.2842 78.8425 10.1393 79.1107 9.84939C79.3212 9.60892 79.4468 9.30257 79.4875 8.93033L79.8134 6.05786H81.1509Z" fill="white"/>
<path fill-rule="evenodd" clip-rule="evenodd" d="M70.8784 8.86121L71.2009 5.94263H74.0729L73.7504 8.86121H70.8784Z" fill="#25BB1E"/>
<path fill-rule="evenodd" clip-rule="evenodd" d="M65.5351 5.94259C66.0919 2.05224 68.1355 0.678588 70.9905 0L69.0792 17.3007C68.9978 18.0287 69.0758 18.5327 69.3033 18.8193C69.5816 19.1718 70.152 19.3496 71.0176 19.3496L73.1631 19.152L72.7965 22.4527C71.2485 22.7162 69.9619 22.848 68.9367 22.848C65.4231 22.848 63.814 21.5073 64.1094 18.8193L65.2126 8.848H61.896L62.2185 5.94259H65.5351Z" fill="#25BB1E"/>
</svg>
